<?xml version="1.0" encoding="utf-8"?>
<svg version="1.1" xmlns:xlink="http://www.w3.org/1999/xlink" width="34px" height="30px" xmlns="http://www.w3.org/2000/svg">
  <g>
    <path d="M 11.4313616071429 10.732421875  C 11.9056919642857 11.220703125  12.1428571428571 11.8098958333333  12.1428571428571 12.5  C 12.1428571428571 13.1901041666667  11.9056919642857 13.779296875  11.4313616071429 14.267578125  C 10.95703125 14.755859375  10.3846726190476 15  9.71428571428571 15  C 9.04389880952381 15  8.47154017857143 14.755859375  7.99720982142857 14.267578125  C 7.52287946428571 13.779296875  7.28571428571429 13.1901041666667  7.28571428571429 12.5  C 7.28571428571429 11.8098958333333  7.52287946428571 11.220703125  7.99720982142857 10.732421875  C 8.47154017857143 10.244140625  9.04389880952381 10  9.71428571428571 10  C 10.3846726190476 10  10.95703125 10.244140625  11.4313616071429 10.732421875  Z M 18.7170758928571 10.732421875  C 19.19140625 11.220703125  19.4285714285714 11.8098958333333  19.4285714285714 12.5  C 19.4285714285714 13.1901041666667  19.19140625 13.779296875  18.7170758928571 14.267578125  C 18.2427455357143 14.755859375  17.6703869047619 15  17 15  C 16.3296130952381 15  15.7572544642857 14.755859375  15.2829241071429 14.267578125  C 14.80859375 13.779296875  14.5714285714286 13.1901041666667  14.5714285714286 12.5  C 14.5714285714286 11.8098958333333  14.80859375 11.220703125  15.2829241071429 10.732421875  C 15.7572544642857 10.244140625  16.3296130952381 10  17 10  C 17.6703869047619 10  18.2427455357143 10.244140625  18.7170758928571 10.732421875  Z M 26.0027901785714 10.732421875  C 26.4771205357143 11.220703125  26.7142857142857 11.8098958333333  26.7142857142857 12.5  C 26.7142857142857 13.1901041666667  26.4771205357143 13.779296875  26.0027901785714 14.267578125  C 25.5284598214286 14.755859375  24.9561011904762 15  24.2857142857143 15  C 23.6153273809524 15  23.04296875 14.755859375  22.5686383928571 14.267578125  C 22.0943080357143 13.779296875  21.8571428571429 13.1901041666667  21.8571428571429 12.5  C 21.8571428571429 11.8098958333333  22.0943080357143 11.220703125  22.5686383928571 10.732421875  C 23.04296875 10.244140625  23.6153273809524 10  24.2857142857143 10  C 24.9561011904762 10  25.5284598214286 10.244140625  26.0027901785714 10.732421875  Z M 24.23828125 3.857421875  C 21.9931175595238 2.95247395833333  19.5803571428571 2.5  17 2.5  C 14.4196428571429 2.5  12.0068824404762 2.95247395833333  9.76171875 3.857421875  C 7.51655505952381 4.76236979166667  5.73307291666667 5.98307291666667  4.41127232142857 7.51953125  C 3.08947172619048 9.05598958333333  2.42857142857143 10.7161458333333  2.42857142857143 12.5  C 2.42857142857143 13.9583333333333  2.88076636904762 15.3483072916667  3.78515625 16.669921875  C 4.68954613095238 17.9915364583333  5.96391369047619 19.1341145833333  7.60825892857143 20.09765625  L 9.25892857142857 21.07421875  L 8.74665178571429 22.94921875  C 8.44308035714286 24.1341145833333  8.00037202380952 25.25390625  7.41852678571429 26.30859375  C 9.34114583333333 25.48828125  11.0803571428571 24.375  12.6361607142857 22.96875  L 13.4520089285714 22.2265625  L 14.5334821428571 22.34375  C 15.40625 22.4479166666667  16.2284226190476 22.5  17 22.5  C 19.5803571428571 22.5  21.9931175595238 22.0475260416667  24.23828125 21.142578125  C 26.4834449404762 20.2376302083333  28.2669270833333 19.0169270833333  29.5887276785714 17.48046875  C 30.9105282738095 15.9440104166667  31.5714285714286 14.2838541666667  31.5714285714286 12.5  C 31.5714285714286 10.7161458333333  30.9105282738095 9.05598958333333  29.5887276785714 7.51953125  C 28.2669270833333 5.98307291666667  26.4834449404762 4.76236979166667  24.23828125 3.857421875  Z M 32.6529017857143 7.646484375  C 33.5509672619048 9.189453125  34 10.8072916666667  34 12.5  C 34 14.765625  33.2410714285714 16.8587239583333  31.7232142857143 18.779296875  C 30.2053571428571 20.6998697916667  28.1436011904762 22.216796875  25.5379464285714 23.330078125  C 22.9322916666667 24.443359375  20.0863095238095 25  17 25  C 16.1145833333333 25  15.1975446428571 24.9479166666667  14.2488839285714 24.84375  C 11.7444196428571 27.1223958333333  8.83519345238095 28.6979166666667  5.52120535714286 29.5703125  C 4.90141369047619 29.7526041666667  4.18043154761905 29.8958333333333  3.35825892857143 30  L 3.26339285714286 30  C 3.07366071428571 30  2.90290178571429 29.931640625  2.75111607142857 29.794921875  C 2.59933035714286 29.658203125  2.49813988095238 29.4791666666667  2.44754464285714 29.2578125  L 2.44754464285714 29.23828125  C 2.40959821428571 29.1861979166667  2.40643601190476 29.1080729166667  2.43805803571429 29.00390625  C 2.46968005952381 28.8997395833333  2.48232886904762 28.8346354166667  2.47600446428571 28.80859375  C 2.46968005952381 28.7825520833333  2.49813988095238 28.720703125  2.56138392857143 28.623046875  L 2.67522321428571 28.447265625  C 2.67522321428571 28.447265625  2.71949404761905 28.3919270833333  2.80803571428571 28.28125  C 2.89657738095238 28.1705729166667  2.94717261904762 28.1119791666667  2.95982142857143 28.10546875  C 3.0483630952381 28.0013020833333  3.24441964285714 27.7766927083333  3.54799107142857 27.431640625  C 3.8515625 27.0865885416667  4.06975446428571 26.8391927083333  4.20256696428571 26.689453125  C 4.33537946428571 26.5397135416667  4.53143601190476 26.2825520833333  4.79073660714286 25.91796875  C 5.05003720238095 25.5533854166667  5.25558035714286 25.2213541666667  5.40736607142857 24.921875  C 5.55915178571429 24.6223958333333  5.72991071428571 24.23828125  5.91964285714286 23.76953125  C 6.109375 23.30078125  6.27380952380952 22.8059895833333  6.41294642857143 22.28515625  C 4.42708333333333 21.1263020833333  2.8617931547619 19.6940104166667  1.71707589285714 17.98828125  C 0.572358630952381 16.2825520833333  0 14.453125  0 12.5  C 0 10.8072916666667  0.449032738095238 9.189453125  1.34709821428571 7.646484375  C 2.24516369047619 6.103515625  3.453125 4.77213541666666  4.97098214285714 3.65234375  C 6.48883928571429 2.53255208333333  8.29761904761905 1.64388020833333  10.3973214285714 0.986328124999999  C 12.4970238095238 0.328776041666665  14.6979166666667 0  17 0  C 19.3020833333333 0  21.5029761904762 0.328776041666665  23.6026785714286 0.986328124999999  C 25.702380952381 1.64388020833333  27.5111607142857 2.53255208333333  29.0290178571429 3.65234375  C 30.546875 4.77213541666666  31.7548363095238 6.103515625  32.6529017857143 7.646484375  Z " fill-rule="nonzero" fill="#000000" stroke="none" />
  </g>
</svg>