<?xml version="1.0" encoding="utf-8"?>
<svg version="1.1" xmlns:xlink="http://www.w3.org/1999/xlink" width="357px" height="95px" xmlns="http://www.w3.org/2000/svg">
  <g>
    <path d="M 3 11  A 8 8 0 0 1 11 3 L 346 3  A 8 8 0 0 1 354 11 L 354 84  A 8 8 0 0 1 346 92 L 11 92  A 8 8 0 0 1 3 84 L 3 11  Z " fill-rule="nonzero" fill="#70b603" stroke="none" fill-opacity="0.866666666666667" />
    <path d="M 1.5 11  A 9.5 9.5 0 0 1 11 1.5 L 346 1.5  A 9.5 9.5 0 0 1 355.5 11 L 355.5 84  A 9.5 9.5 0 0 1 346 93.5 L 11 93.5  A 9.5 9.5 0 0 1 1.5 84 L 1.5 11  Z " stroke-width="3" stroke="#ffff80" fill="none" stroke-opacity="0.654901960784314" />
  </g>
</svg>